<svg xmlns="http://www.w3.org/2000/svg" xmlns:xlink="http://www.w3.org/1999/xlink" width="1300" height="798.14"><rect width="1300" height="798.14" rx="5" ry="5" class="a"/><svg y="0%" x="0%"><circle cx="20" cy="20" r="6" fill="#ff5f58"/><circle cx="40" cy="20" r="6" fill="#ffbd2e"/><circle cx="60" cy="20" r="6" fill="#18c132"/></svg><svg height="738.14" viewBox="0 0 126 73.814" width="1260" x="15" xmlns="http://www.w3.org/2000/svg" xmlns:xlink="http://www.w3.org/1999/xlink" y="50"><style>@keyframes m{0%{transform:translateX(0)}1%{transform:translateX(-126px)}2%{transform:translateX(-252px)}3%{transform:translateX(-378px)}22.6%{transform:translateX(-504px)}23.5%{transform:translateX(-630px)}25.5%{transform:translateX(-756px)}26.4%{transform:translateX(-882px)}30.1%{transform:translateX(-1008px)}30.7%{transform:translateX(-1134px)}30.8%{transform:translateX(-1260px)}30.9%{transform:translateX(-1386px)}37%{transform:translateX(-1512px)}37.9%{transform:translateX(-1638px)}39.4%{transform:translateX(-1764px)}40.1%{transform:translateX(-1890px)}40.7%{transform:translateX(-2016px)}43.5%{transform:translateX(-2142px)}44.2%{transform:translateX(-2268px)}44.3%{transform:translateX(-2394px)}44.4%{transform:translateX(-2520px)}50.2%{transform:translateX(-2646px)}51.1%{transform:translateX(-2772px)}53.4%{transform:translateX(-2898px)}54.3%{transform:translateX(-3024px)}55.4%{transform:translateX(-3150px)}56%{transform:translateX(-3276px)}57.9%{transform:translateX(-3402px)}58.4%{transform:translateX(-3528px)}59.7%{transform:translateX(-3654px)}61.1%{transform:translateX(-3780px)}64.3%{transform:translateX(-3906px)}65.7%{transform:translateX(-4032px)}67.5%{transform:translateX(-4158px)}69%{transform:translateX(-4284px)}69.6%{transform:translateX(-4410px)}71.8%{transform:translateX(-4536px)}72.2%{transform:translateX(-4662px)}72.6%{transform:translateX(-4788px)}73.8%{transform:translateX(-4914px)}77.7%{transform:translateX(-5040px)}78.6%{transform:translateX(-5166px)}80.9%{transform:translateX(-5292px)}81.5%{transform:translateX(-5418px)}83%{transform:translateX(-5544px)}85.1%{transform:translateX(-5670px)}85.6%{transform:translateX(-5796px)}86.1%{transform:translateX(-5922px)}88.1%{transform:translateX(-6048px)}to{transform:translateX(-6174px)}}.a{fill:#282d35}.f,.g,.h,.i,.j{fill:#ba6ecf;white-space:pre}.g,.h,.i,.j{fill:#e4e4e4}.h,.i,.j{fill:#b9c0cb}.i,.j{fill:#d0d0d0}.j{fill:#f1502f}</style><g font-family="Monaco,Consolas,Menlo,'Bitstream Vera Sans Mono','Powerline Symbols',monospace" font-size="1.67"><defs><symbol id="1"><text y="1.67" class="f">/tmp</text></symbol><symbol id="2"><text y="1.67" class="g">➜</text></symbol><symbol id="3"><text y="1.67" class="g">➜</text><text x="2.004" y="1.67" class="h">j</text></symbol><symbol id="4"><text y="1.67" class="g">➜</text><text x="2.004" y="1.67" class="h">j</text><text x="4.008" y="1.67" class="h">w</text></symbol><symbol id="5"><text y="1.67" class="g">➜</text><text x="2.004" y="1.67" class="h">j</text><text x="4.008" y="1.67" class="h">wo</text></symbol><symbol id="6"><text y="1.67" class="f">~/workspace</text></symbol><symbol id="7"><text y="1.67" class="g">➜</text><text x="2.004" y="1.67" class="h">j</text><text x="4.008" y="1.67" class="h">per</text></symbol><symbol id="8"><text y="1.67" class="f">personal</text></symbol><symbol id="9"><text y="1.67" class="g">➜</text><text x="2.004" y="1.67" class="h">j</text><text x="4.008" y="1.67" class="h">octo</text></symbol><symbol id="10"><text y="1.67" class="f">personal/octo</text><text x="14.028" y="1.67" class="i">on</text><text x="17.034" y="1.67" class="j">main</text><text x="22.044" y="1.67" class="i">?!</text></symbol><symbol id="11"><text y="1.67" class="g">➜</text><text x="2.004" y="1.67" class="h">j</text><text x="4.008" y="1.67" class="h">ink</text></symbol><symbol id="12"><text y="1.67" class="f">personal/ink-mde</text><text x="17.034" y="1.67" class="i">on</text><text x="20.04" y="1.67" class="j">main</text></symbol><symbol id="13"><text y="1.67" class="g">➜</text><text x="2.004" y="1.67" class="h">j</text><text x="4.008" y="1.67" class="h">web</text></symbol><symbol id="14"><text y="1.67" class="f">personal/website</text><text x="17.034" y="1.67" class="i">on</text><text x="20.04" y="1.67" class="j">main</text><text x="25.05" y="1.67" class="i">?!</text></symbol><symbol id="a"><path fill="transparent" d="M0 0h126v34H0z"/></symbol><symbol id="b"><path fill="#6f7683" d="M0 0h1.102v2.171H0z"/></symbol></defs><path class="a" d="M0 0h126v73.814H0z"/><g style="animation-duration:10s;animation-iteration-count:infinite;animation-name:m;animation-timing-function:steps(1,end)"><svg width="6300"><svg><use xlink:href="#a"/><use xlink:href="#b" x="-.004"/></svg><svg x="126"><use xlink:href="#a"/><use xlink:href="#b" x="-.004"/></svg><svg x="252"><use xlink:href="#a"/><use xlink:href="#b" x="-.004"/></svg><svg x="378"><use xlink:href="#a"/><use xlink:href="#b" x="1.996" y="2.146"/><use xlink:href="#1"/><use xlink:href="#2" y="2.171"/></svg><svg x="504"><use xlink:href="#a"/><use xlink:href="#b" x="2.996" y="2.146"/><use xlink:href="#1"/><use xlink:href="#3" y="2.171"/></svg><svg x="630"><use xlink:href="#a"/><use xlink:href="#b" x="3.996" y="2.146"/><use xlink:href="#1"/><use xlink:href="#3" y="2.171"/></svg><svg x="756"><use xlink:href="#a"/><use xlink:href="#b" x="4.996" y="2.146"/><use xlink:href="#1"/><use xlink:href="#4" y="2.171"/></svg><svg x="882"><use xlink:href="#a"/><use xlink:href="#b" x="5.996" y="2.146"/><use xlink:href="#1"/><use xlink:href="#5" y="2.171"/></svg><svg x="1008"><use xlink:href="#a"/><use xlink:href="#b" x="-.004" y="4.317"/><use xlink:href="#1"/><use xlink:href="#5" y="2.171"/></svg><svg x="1134"><use xlink:href="#a"/><use xlink:href="#b" x="-.004" y="4.317"/><use xlink:href="#1"/><use xlink:href="#5" y="2.171"/></svg><svg x="1260"><use xlink:href="#a"/><use xlink:href="#b" x="-.004" y="4.317"/><use xlink:href="#1"/><use xlink:href="#5" y="2.171"/></svg><svg x="1386"><use xlink:href="#a"/><use xlink:href="#b" x="1.996" y="6.488"/><use xlink:href="#1"/><use xlink:href="#5" y="2.171"/><use xlink:href="#6" y="4.342"/><use xlink:href="#2" y="6.513"/></svg><svg x="1512"><use xlink:href="#a"/><use xlink:href="#b" x="2.996" y="6.488"/><use xlink:href="#1"/><use xlink:href="#5" y="2.171"/><use xlink:href="#6" y="4.342"/><use xlink:href="#3" y="6.513"/></svg><svg x="1638"><use xlink:href="#a"/><use xlink:href="#b" x="3.996" y="6.488"/><use xlink:href="#1"/><use xlink:href="#5" y="2.171"/><use xlink:href="#6" y="4.342"/><use xlink:href="#3" y="6.513"/></svg><svg x="1764"><use xlink:href="#a"/><use xlink:href="#b" x="4.996" y="6.488"/><use xlink:href="#1"/><use xlink:href="#5" y="2.171"/><use xlink:href="#6" y="4.342"/><text y="8.183" class="g">➜</text><text x="2.004" y="8.183" class="h">j</text><text x="4.008" y="8.183" class="h">p</text></svg><svg x="1890"><use xlink:href="#a"/><use xlink:href="#b" x="5.996" y="6.488"/><use xlink:href="#1"/><use xlink:href="#5" y="2.171"/><use xlink:href="#6" y="4.342"/><text y="8.183" class="g">➜</text><text x="2.004" y="8.183" class="h">j</text><text x="4.008" y="8.183" class="h">pe</text></svg><svg x="2016"><use xlink:href="#a"/><use xlink:href="#b" x="6.996" y="6.488"/><use xlink:href="#1"/><use xlink:href="#5" y="2.171"/><use xlink:href="#6" y="4.342"/><use xlink:href="#7" y="6.513"/></svg><svg x="2142"><use xlink:href="#a"/><use xlink:href="#b" x="-.004" y="8.659"/><use xlink:href="#1"/><use xlink:href="#5" y="2.171"/><use xlink:href="#6" y="4.342"/><use xlink:href="#7" y="6.513"/></svg><svg x="2268"><use xlink:href="#a"/><use xlink:href="#b" x="-.004" y="8.659"/><use xlink:href="#1"/><use xlink:href="#5" y="2.171"/><use xlink:href="#6" y="4.342"/><use xlink:href="#7" y="6.513"/></svg><svg x="2394"><use xlink:href="#a"/><use xlink:href="#b" x="-.004" y="8.659"/><use xlink:href="#1"/><use xlink:href="#5" y="2.171"/><use xlink:href="#6" y="4.342"/><use xlink:href="#7" y="6.513"/></svg><svg x="2520"><use xlink:href="#a"/><use xlink:href="#b" x="1.996" y="10.83"/><use xlink:href="#1"/><use xlink:href="#5" y="2.171"/><use xlink:href="#6" y="4.342"/><use xlink:href="#7" y="6.513"/><use xlink:href="#8" y="8.684"/><use xlink:href="#2" y="10.855"/></svg><svg x="2646"><use xlink:href="#a"/><use xlink:href="#b" x="2.996" y="10.83"/><use xlink:href="#1"/><use xlink:href="#5" y="2.171"/><use xlink:href="#6" y="4.342"/><use xlink:href="#7" y="6.513"/><use xlink:href="#8" y="8.684"/><use xlink:href="#3" y="10.855"/></svg><svg x="2772"><use xlink:href="#a"/><use xlink:href="#b" x="3.996" y="10.83"/><use xlink:href="#1"/><use xlink:href="#5" y="2.171"/><use xlink:href="#6" y="4.342"/><use xlink:href="#7" y="6.513"/><use xlink:href="#8" y="8.684"/><use xlink:href="#3" y="10.855"/></svg><svg x="2898"><use xlink:href="#a"/><use xlink:href="#b" x="4.996" y="10.83"/><use xlink:href="#1"/><use xlink:href="#5" y="2.171"/><use xlink:href="#6" y="4.342"/><use xlink:href="#7" y="6.513"/><use xlink:href="#8" y="8.684"/><text y="12.525" class="g">➜</text><text x="2.004" y="12.525" class="h">j</text><text x="4.008" y="12.525" class="h">o</text></svg><svg x="3024"><use xlink:href="#a"/><use xlink:href="#b" x="5.996" y="10.83"/><use xlink:href="#1"/><use xlink:href="#5" y="2.171"/><use xlink:href="#6" y="4.342"/><use xlink:href="#7" y="6.513"/><use xlink:href="#8" y="8.684"/><text y="12.525" class="g">➜</text><text x="2.004" y="12.525" class="h">j</text><text x="4.008" y="12.525" class="h">oc</text></svg><svg x="3150"><use xlink:href="#a"/><use xlink:href="#b" x="6.996" y="10.83"/><use xlink:href="#1"/><use xlink:href="#5" y="2.171"/><use xlink:href="#6" y="4.342"/><use xlink:href="#7" y="6.513"/><use xlink:href="#8" y="8.684"/><text y="12.525" class="g">➜</text><text x="2.004" y="12.525" class="h">j</text><text x="4.008" y="12.525" class="h">oct</text></svg><svg x="3276"><use xlink:href="#a"/><use xlink:href="#b" x="7.996" y="10.83"/><use xlink:href="#1"/><use xlink:href="#5" y="2.171"/><use xlink:href="#6" y="4.342"/><use xlink:href="#7" y="6.513"/><use xlink:href="#8" y="8.684"/><use xlink:href="#9" y="10.855"/></svg><svg x="3402"><use xlink:href="#a"/><use xlink:href="#b" x="-.004" y="13.001"/><use xlink:href="#1"/><use xlink:href="#5" y="2.171"/><use xlink:href="#6" y="4.342"/><use xlink:href="#7" y="6.513"/><use xlink:href="#8" y="8.684"/><use xlink:href="#9" y="10.855"/></svg><svg x="3528"><use xlink:href="#a"/><use xlink:href="#b" x="-.004" y="13.001"/><use xlink:href="#1"/><use xlink:href="#5" y="2.171"/><use xlink:href="#6" y="4.342"/><use xlink:href="#7" y="6.513"/><use xlink:href="#8" y="8.684"/><use xlink:href="#9" y="10.855"/></svg><svg x="3654"><use xlink:href="#a"/><use xlink:href="#b" x="-.004" y="13.001"/><use xlink:href="#1"/><use xlink:href="#5" y="2.171"/><use xlink:href="#6" y="4.342"/><use xlink:href="#7" y="6.513"/><use xlink:href="#8" y="8.684"/><use xlink:href="#9" y="10.855"/></svg><svg x="3780"><use xlink:href="#a"/><use xlink:href="#b" x="1.996" y="15.172"/><use xlink:href="#1"/><use xlink:href="#5" y="2.171"/><use xlink:href="#6" y="4.342"/><use xlink:href="#7" y="6.513"/><use xlink:href="#8" y="8.684"/><use xlink:href="#9" y="10.855"/><use xlink:href="#10" y="13.026"/><use xlink:href="#2" y="15.197"/></svg><svg x="3906"><use xlink:href="#a"/><use xlink:href="#b" x="2.996" y="15.172"/><use xlink:href="#1"/><use xlink:href="#5" y="2.171"/><use xlink:href="#6" y="4.342"/><use xlink:href="#7" y="6.513"/><use xlink:href="#8" y="8.684"/><use xlink:href="#9" y="10.855"/><use xlink:href="#10" y="13.026"/><use xlink:href="#3" y="15.197"/></svg><svg x="4032"><use xlink:href="#a"/><use xlink:href="#b" x="3.996" y="15.172"/><use xlink:href="#1"/><use xlink:href="#5" y="2.171"/><use xlink:href="#6" y="4.342"/><use xlink:href="#7" y="6.513"/><use xlink:href="#8" y="8.684"/><use xlink:href="#9" y="10.855"/><use xlink:href="#10" y="13.026"/><use xlink:href="#3" y="15.197"/></svg><svg x="4158"><use xlink:href="#a"/><use xlink:href="#b" x="4.996" y="15.172"/><use xlink:href="#1"/><use xlink:href="#5" y="2.171"/><use xlink:href="#6" y="4.342"/><use xlink:href="#7" y="6.513"/><use xlink:href="#8" y="8.684"/><use xlink:href="#9" y="10.855"/><use xlink:href="#10" y="13.026"/><text y="16.867" class="g">➜</text><text x="2.004" y="16.867" class="h">j</text><text x="4.008" y="16.867" class="h">i</text></svg><svg x="4284"><use xlink:href="#a"/><use xlink:href="#b" x="5.996" y="15.172"/><use xlink:href="#1"/><use xlink:href="#5" y="2.171"/><use xlink:href="#6" y="4.342"/><use xlink:href="#7" y="6.513"/><use xlink:href="#8" y="8.684"/><use xlink:href="#9" y="10.855"/><use xlink:href="#10" y="13.026"/><text y="16.867" class="g">➜</text><text x="2.004" y="16.867" class="h">j</text><text x="4.008" y="16.867" class="h">in</text></svg><svg x="4410"><use xlink:href="#a"/><use xlink:href="#b" x="6.996" y="15.172"/><use xlink:href="#1"/><use xlink:href="#5" y="2.171"/><use xlink:href="#6" y="4.342"/><use xlink:href="#7" y="6.513"/><use xlink:href="#8" y="8.684"/><use xlink:href="#9" y="10.855"/><use xlink:href="#10" y="13.026"/><use xlink:href="#11" y="15.197"/></svg><svg x="4536"><use xlink:href="#a"/><use xlink:href="#b" x="-.004" y="17.343"/><use xlink:href="#1"/><use xlink:href="#5" y="2.171"/><use xlink:href="#6" y="4.342"/><use xlink:href="#7" y="6.513"/><use xlink:href="#8" y="8.684"/><use xlink:href="#9" y="10.855"/><use xlink:href="#10" y="13.026"/><use xlink:href="#11" y="15.197"/></svg><svg x="4662"><use xlink:href="#a"/><use xlink:href="#b" x="-.004" y="17.343"/><use xlink:href="#1"/><use xlink:href="#5" y="2.171"/><use xlink:href="#6" y="4.342"/><use xlink:href="#7" y="6.513"/><use xlink:href="#8" y="8.684"/><use xlink:href="#9" y="10.855"/><use xlink:href="#10" y="13.026"/><use xlink:href="#11" y="15.197"/></svg><svg x="4788"><use xlink:href="#a"/><use xlink:href="#b" x="-.004" y="17.343"/><use xlink:href="#1"/><use xlink:href="#5" y="2.171"/><use xlink:href="#6" y="4.342"/><use xlink:href="#7" y="6.513"/><use xlink:href="#8" y="8.684"/><use xlink:href="#9" y="10.855"/><use xlink:href="#10" y="13.026"/><use xlink:href="#11" y="15.197"/></svg><svg x="4914"><use xlink:href="#a"/><use xlink:href="#b" x="1.996" y="19.514"/><use xlink:href="#1"/><use xlink:href="#5" y="2.171"/><use xlink:href="#6" y="4.342"/><use xlink:href="#7" y="6.513"/><use xlink:href="#8" y="8.684"/><use xlink:href="#9" y="10.855"/><use xlink:href="#10" y="13.026"/><use xlink:href="#11" y="15.197"/><use xlink:href="#12" y="17.368"/><use xlink:href="#2" y="19.539"/></svg><svg x="5040"><use xlink:href="#a"/><use xlink:href="#b" x="2.996" y="19.514"/><use xlink:href="#1"/><use xlink:href="#5" y="2.171"/><use xlink:href="#6" y="4.342"/><use xlink:href="#7" y="6.513"/><use xlink:href="#8" y="8.684"/><use xlink:href="#9" y="10.855"/><use xlink:href="#10" y="13.026"/><use xlink:href="#11" y="15.197"/><use xlink:href="#12" y="17.368"/><use xlink:href="#3" y="19.539"/></svg><svg x="5166"><use xlink:href="#a"/><use xlink:href="#b" x="3.996" y="19.514"/><use xlink:href="#1"/><use xlink:href="#5" y="2.171"/><use xlink:href="#6" y="4.342"/><use xlink:href="#7" y="6.513"/><use xlink:href="#8" y="8.684"/><use xlink:href="#9" y="10.855"/><use xlink:href="#10" y="13.026"/><use xlink:href="#11" y="15.197"/><use xlink:href="#12" y="17.368"/><use xlink:href="#3" y="19.539"/></svg><svg x="5292"><use xlink:href="#a"/><use xlink:href="#b" x="4.996" y="19.514"/><use xlink:href="#1"/><use xlink:href="#5" y="2.171"/><use xlink:href="#6" y="4.342"/><use xlink:href="#7" y="6.513"/><use xlink:href="#8" y="8.684"/><use xlink:href="#9" y="10.855"/><use xlink:href="#10" y="13.026"/><use xlink:href="#11" y="15.197"/><use xlink:href="#12" y="17.368"/><use xlink:href="#4" y="19.539"/></svg><svg x="5418"><use xlink:href="#a"/><use xlink:href="#b" x="5.996" y="19.514"/><use xlink:href="#1"/><use xlink:href="#5" y="2.171"/><use xlink:href="#6" y="4.342"/><use xlink:href="#7" y="6.513"/><use xlink:href="#8" y="8.684"/><use xlink:href="#9" y="10.855"/><use xlink:href="#10" y="13.026"/><use xlink:href="#11" y="15.197"/><use xlink:href="#12" y="17.368"/><text y="21.209" class="g">➜</text><text x="2.004" y="21.209" class="h">j</text><text x="4.008" y="21.209" class="h">we</text></svg><svg x="5544"><use xlink:href="#a"/><use xlink:href="#b" x="6.996" y="19.514"/><use xlink:href="#1"/><use xlink:href="#5" y="2.171"/><use xlink:href="#6" y="4.342"/><use xlink:href="#7" y="6.513"/><use xlink:href="#8" y="8.684"/><use xlink:href="#9" y="10.855"/><use xlink:href="#10" y="13.026"/><use xlink:href="#11" y="15.197"/><use xlink:href="#12" y="17.368"/><use xlink:href="#13" y="19.539"/></svg><svg x="5670"><use xlink:href="#a"/><use xlink:href="#b" x="-.004" y="21.685"/><use xlink:href="#1"/><use xlink:href="#5" y="2.171"/><use xlink:href="#6" y="4.342"/><use xlink:href="#7" y="6.513"/><use xlink:href="#8" y="8.684"/><use xlink:href="#9" y="10.855"/><use xlink:href="#10" y="13.026"/><use xlink:href="#11" y="15.197"/><use xlink:href="#12" y="17.368"/><use xlink:href="#13" y="19.539"/></svg><svg x="5796"><use xlink:href="#a"/><use xlink:href="#b" x="-.004" y="21.685"/><use xlink:href="#1"/><use xlink:href="#5" y="2.171"/><use xlink:href="#6" y="4.342"/><use xlink:href="#7" y="6.513"/><use xlink:href="#8" y="8.684"/><use xlink:href="#9" y="10.855"/><use xlink:href="#10" y="13.026"/><use xlink:href="#11" y="15.197"/><use xlink:href="#12" y="17.368"/><use xlink:href="#13" y="19.539"/></svg><svg x="5922"><use xlink:href="#a"/><use xlink:href="#b" x="-.004" y="21.685"/><use xlink:href="#1"/><use xlink:href="#5" y="2.171"/><use xlink:href="#6" y="4.342"/><use xlink:href="#7" y="6.513"/><use xlink:href="#8" y="8.684"/><use xlink:href="#9" y="10.855"/><use xlink:href="#10" y="13.026"/><use xlink:href="#11" y="15.197"/><use xlink:href="#12" y="17.368"/><use xlink:href="#13" y="19.539"/></svg><svg x="6048"><use xlink:href="#a"/><use xlink:href="#b" x="1.996" y="23.856"/><use xlink:href="#1"/><use xlink:href="#5" y="2.171"/><use xlink:href="#6" y="4.342"/><use xlink:href="#7" y="6.513"/><use xlink:href="#8" y="8.684"/><use xlink:href="#9" y="10.855"/><use xlink:href="#10" y="13.026"/><use xlink:href="#11" y="15.197"/><use xlink:href="#12" y="17.368"/><use xlink:href="#13" y="19.539"/><use xlink:href="#14" y="21.71"/><use xlink:href="#2" y="23.881"/></svg><svg x="6174"><use xlink:href="#a"/><use xlink:href="#b" x="1.996" y="23.856"/><use xlink:href="#1"/><use xlink:href="#5" y="2.171"/><use xlink:href="#6" y="4.342"/><use xlink:href="#7" y="6.513"/><use xlink:href="#8" y="8.684"/><use xlink:href="#9" y="10.855"/><use xlink:href="#10" y="13.026"/><use xlink:href="#11" y="15.197"/><use xlink:href="#12" y="17.368"/><use xlink:href="#13" y="19.539"/><use xlink:href="#14" y="21.71"/><use xlink:href="#2" y="23.881"/></svg></svg></g></g></svg></svg>